<?xml version="1.0" encoding="UTF-8" standalone="no"?>
<svg
   version="1.0"
   viewBox="0 0 500.00001 200"
   id="svg15209"
   sodipodi:docname="pancreas.svg"
   width="500"
   height="200"
   inkscape:export-filename="Z:\Groups\vd-ay\jreyna\projects\dchallenge\docs\Pictures\pancreas.png"
   inkscape:export-xdpi="300"
   inkscape:export-ydpi="300"
   inkscape:version="1.1 (c68e22c387, 2021-05-23)"
   xmlns:inkscape="http://www.inkscape.org/namespaces/inkscape"
   xmlns:sodipodi="http://sodipodi.sourceforge.net/DTD/sodipodi-0.dtd"
   xmlns="http://www.w3.org/2000/svg"
   xmlns:svg="http://www.w3.org/2000/svg">
  <sodipodi:namedview
     id="namedview15211"
     pagecolor="#ffffff"
     bordercolor="#666666"
     borderopacity="1.0"
     inkscape:pageshadow="2"
     inkscape:pageopacity="0.0"
     inkscape:pagecheckerboard="0"
     showgrid="false"
     width="500px"
     inkscape:zoom="0.66953926"
     inkscape:cx="135.91436"
     inkscape:cy="105.29629"
     inkscape:window-width="1536"
     inkscape:window-height="841"
     inkscape:window-x="-8"
     inkscape:window-y="-8"
     inkscape:window-maximized="1"
     inkscape:current-layer="svg15209" />
  <defs
     id="defs15137">
    <clipPath
       clipPathUnits="userSpaceOnUse"
       id="a">
      <path
         d="M 0.56,3.278 H 411.59 V 177.492 H 0.56 Z"
         id="path15134" />
    </clipPath>
  </defs>
  <g
     id="g15305"
     transform="translate(44.060257,9.6354273)">
    <path
       clip-path="url(#a)"
       d="M 21.147,55.007 C 4.917,60.803 2.44,86.107 2,92.344 c -0.84,5.317 -0.4,22.227 0.44,27.543 0.839,5.357 7.075,10.234 7.075,16.47 0.4,7.116 1.24,7.996 3.758,14.232 4.997,14.191 15.79,21.307 29.982,23.985 7.075,1.32 11.233,1.32 18.708,1.76 2.919,0 7.516,-0.44 10.834,-1.32 4.157,-0.88 6.236,-1.759 9.994,-3.118 4.157,-1.32 7.915,-1.76 11.673,-3.558 7.075,-3.998 7.915,-3.118 15.39,-4.437 8.355,-1.32 13.752,-7.116 19.988,-11.114 5.437,-3.118 8.755,-4.877 14.591,-8.434 4.997,-3.119 9.994,-16.47 6.636,-21.787 l 0.84,0.88 c 7.076,0 14.151,-0.44 21.667,-0.88 15.39,-0.44 33.74,-0.88 48.73,-5.317 9.155,-2.678 19.548,-4.917 29.143,-5.357 10.393,-0.44 17.07,-3.118 27.463,-6.196 15.43,-4.477 30.821,-23.146 45.412,-27.583 3.318,-1.32 7.476,-4.438 11.234,-5.757 2.918,-0.92 6.676,-0.92 9.554,-1.799 7.116,-2.198 23.745,-9.314 29.982,-12.432 11.273,-4.877 39.975,-23.546 34.579,-48.45 -1.68,-8.915 -17.47,-4.878 -31.221,0 -9.595,3.557 -22.906,2.198 -33.34,2.198 -8.715,0 -13.312,0.48 -21.627,0.92 -6.236,0 -12.073,1.318 -18.309,1.758 -6.676,0 -9.994,2.239 -16.67,3.118 -7.515,0.88 -17.07,-1.319 -24.985,-2.238 -8.754,-0.88 -21.227,0 -30.421,2.238 -16.63,3.558 -36.218,2.239 -54.527,0.88 -19.149,-0.88 -35.419,-4.438 -54.567,-1.32 -16.23,2.679 -39.536,-0.44 -54.527,8.435 -5.837,3.558 -22.067,7.996 -27.064,12.433 -7.075,6.676 -14.59,10.673 -21.667,16.91 z"
       fill="#fee8b0"
       fill-rule="evenodd"
       id="path15139" />
    <path
       d="m 98.58,135.878 c 7.516,-1.78 14.591,-7.096 22.107,-9.754 6.656,-2.22 14.591,-3.119 21.247,-1.34 14.171,3.558 2.099,15.97 -4.997,20.848 -8.755,5.776 -18.349,13.312 -28.343,15.53 -14.171,3.098 -27.943,8.435 -42.514,11.533 -6.676,1.32 -12.512,0.44 -19.188,-1.339 -3.758,-0.88 -12.913,-0.88 -15.431,-3.538 7.935,0 16.69,0 23.766,-3.997 5.836,-3.538 6.675,-0.88 12.932,0 5.836,0.44 15.01,-1.34 19.588,-4.438 4.177,-2.218 6.256,-7.095 10.014,-9.314 6.656,7.995 16.25,3.558 23.346,0 5.836,-3.098 16.67,-2.219 18.328,-11.533 -0.42,-0.44 -0.819,0 -1.239,-0.44 -4.177,-8.874 -17.51,-4.877 -24.605,-2.218 -5.417,2.218 -8.755,3.997 -14.591,3.997 -4.577,0 -8.755,1.32 -12.912,2.219 3.318,-3.998 7.495,-4.877 11.673,-5.777 z"
       fill="#f4d589"
       fill-rule="evenodd"
       id="path15141" />
    <path
       d="m 120.287,133.619 c 4.997,-0.46 7.076,6.256 5.417,10.734 2.059,-1.78 2.898,-4.918 4.977,-6.257 3.318,-1.799 5.816,0.9 8.295,0 9.134,-2.698 -5.797,-8.515 -9.534,-9.414 z m -20.867,5.377 c -2.059,2.678 -2.898,5.796 -3.318,9.354 -3.318,-4.437 -6.216,-6.236 -11.633,-4.897 z m -14.991,-3.538 c 8.735,0.88 14.97,-6.236 22.446,-9.334 7.895,-3.558 16.63,-3.998 24.525,-6.676 -3.318,-0.88 -6.636,-4.438 -7.895,-7.556 -6.236,3.118 -6.236,5.777 -13.292,5.777 -6.656,0 -8.315,3.118 -12.072,8.015 -3.318,4.437 -12.053,3.098 -14.552,6.216 -2.078,2.658 0.42,3.098 -4.157,7.096 z m 54.167,-16.05 c 5.437,0 8.755,-5.317 13.352,-6.197 3.318,-0.44 7.915,1.32 12.073,0.88 6.236,-0.88 12.072,-0.44 18.309,-1.32 7.515,-0.879 9.993,-5.316 15.83,-8.874 3.758,6.676 12.912,5.317 19.188,5.317 5.797,-0.44 12.912,1.359 18.709,2.238 -6.236,0 -12.912,3.079 -18.709,3.958 -7.075,1.36 -12.112,2.678 -18.748,3.118 -9.994,1.32 -19.588,0.88 -29.183,1.76 -6.636,0.879 -22.066,1.758 -28.303,-0.44 z m 111.932,-9.675 c 3.758,-1.319 5.037,-4.877 8.755,-5.756 3.358,-0.88 7.116,-0.44 10.434,-1.32 7.075,-2.678 20.827,-6.235 25.424,-13.351 2.079,-2.639 2.519,-7.995 2.918,-11.553 0,-5.757 0,-4.437 5.437,-4.437 7.076,0 14.151,-1.76 20.388,-3.558 3.757,-0.88 13.352,-3.518 14.191,-7.516 4.597,1.32 7.915,0.44 12.513,-0.48 3.318,0 7.075,1.36 9.554,0 -2.918,3.119 -7.076,3.119 -10.834,4.478 -4.557,1.759 -11.233,3.078 -15.39,4.437 -8.755,2.199 -17.95,7.556 -25.425,11.993 -4.597,3.078 -7.515,7.555 -11.673,10.633 -3.358,2.679 -7.515,4.917 -10.833,7.116 -7.516,4.877 -17.11,6.676 -25.425,7.995 -2.518,0.44 -6.676,1.32 -8.355,0.88 z"
       fill="#f4d589"
       fill-rule="evenodd"
       id="path15143" />
    <path
       d="m 357.184,63.522 c 5.396,-1.32 9.154,-4.438 14.15,-6.676 4.558,-2.2 9.555,-3.119 13.713,-6.237 5.836,-3.997 16.23,-11.992 17.869,-20.028 -3.318,4.038 -8.315,6.676 -13.312,7.156 0,6.196 -10.394,12.872 -15.39,13.352 -5.797,0.88 -7.037,1.759 -11.234,5.317 -4.957,3.997 -9.554,6.676 -15.39,7.995 z"
       fill="#f4d589"
       fill-rule="evenodd"
       id="path15145" />
    <path
       d="m 395.12,8.435 c 6.597,-0.48 11.154,-0.48 11.953,8.435 0,3.558 -0.8,6.676 -2.038,9.794 -1.24,3.118 -4.118,10.234 -6.197,11.113 2.079,-5.317 2.479,-10.234 -4.557,-8.435 0.84,-3.997 8.675,-6.676 9.115,-13.352 0,-3.997 -4.558,-6.676 -7.876,-8.035 z m -62.162,37.777 c 1.68,1.759 2.958,3.958 3.358,5.717 0.44,-3.079 0.44,-7.476 1.68,-10.154 z M 363.42,20.747 c 1.679,1.36 3.717,1.36 6.156,1.8 -1.2,0.44 -2.039,2.238 -2.039,3.557 z m -57.965,2.279 c 2.958,0.44 5.437,-1.799 9.194,-0.44 -1.639,0.88 -2.478,2.679 -1.639,3.998 z M 244.692,49.21 c 0.4,3.118 2.518,5.357 3.358,7.995 -1.24,-0.88 -2.959,-1.759 -4.238,-1.319 z m 8.794,57.365 c 2.919,-0.44 9.195,0 11.673,-2.198 -1.639,-2.199 -6.236,-2.639 -8.754,-3.998 -2.08,2.679 -4.198,4.877 -5.877,6.636 z M 299.698,65.76 c -2.118,3.118 -2.958,6.676 -5.916,8.435 2.558,1.799 2.558,7.116 1.28,10.194 1.278,-2.199 3.797,-4.877 6.715,-4.877 -1.24,-4.438 -2.518,-7.076 -2.518,-12.832 z M 146.111,62.522 c 3.718,0 6.616,4.897 8.675,7.556 -0.42,-3.119 0.42,-6.676 1.64,-9.355 -1.64,1.8 -4.538,1.34 -6.597,0.46 z M 161.382,34.1 c 2.119,1.359 2.119,4.077 2.958,6.316 1.68,-1.34 3.358,-1.8 5.037,-2.24 -2.518,0.44 -4.617,-1.358 -5.876,-3.617 z m 32.141,16.95 c 1.679,1.318 2.518,3.117 3.358,5.356 0.4,-1.76 2.518,-2.679 4.157,-4.038 -1.639,0.48 -3.758,0 -4.557,-1.799 z m -2.958,34.138 c 5.876,3.598 2.118,9.395 4.637,13.832 -0.44,-3.558 0.84,-5.796 4.157,-7.995 z m -44.134,31.502 c 1.68,-2.16 3.758,-4.778 5.417,-6.957 1.24,3.059 4.157,4.358 7.056,5.657 z M 91.425,85.188 c -2.899,2.679 -0.82,7.116 -2.499,9.335 -2.079,1.779 -5.397,0.88 -7.495,3.538 1.259,-4.877 6.676,-6.656 8.335,-11.973 z M 53.927,116.69 c 1.72,1.798 4.697,1.798 6.396,3.157 -1.279,1.34 -2.118,2.699 -3.398,4.038 v -1.34 z m 2.619,-59.485 c -0.84,3.598 1.679,4.038 2.918,5.837 1.679,2.238 2.938,4.037 3.338,6.716 -1.66,-2.679 -4.997,-3.138 -7.516,-4.018 z M 78.952,36.738 c 1.68,4.957 7.536,1.359 9.195,5.396 -2.08,0 -4.178,0.46 -5.417,1.8 z M 11.473,139.875 c 1.679,11.533 6.696,19.508 15.87,26.164 5.837,4.438 35.459,7.976 31.301,-5.316 -4.177,0 -8.354,3.098 -13.351,1.339 -5.017,-1.78 -7.096,-6.656 -8.355,-11.533 -5.837,0.44 -11.274,5.317 -17.53,1.319 -4.177,-2.658 -3.338,-10.634 -6.256,-11.973 z m 78.353,-0.559 c -3.718,1.818 -6.197,1.818 -9.515,3.158 1.66,2.698 7.456,3.597 10.354,4.057 4.118,0.9 6.596,1.34 5.357,-4.957 z M 27.303,99.02 c 1.26,0.88 2.08,2.199 2.499,3.518 1.659,-1.32 3.738,-2.639 5.816,-3.078 -1.659,-0.44 -3.737,-0.44 -5.396,-0.44 z"
       fill="#f4d589"
       fill-rule="evenodd"
       id="path15147" />
    <path
       d="m 321.765,16.83 c 6.676,0 30.022,-4.917 34.619,1.799 3.318,-4.917 11.233,-2.679 16.23,-3.598 7.116,-1.32 14.591,-3.118 21.667,-4.917 -5.796,3.158 -12.073,8.515 -18.749,8.515 -4.157,0 -8.754,-2.239 -13.312,-1.36 -3.757,0.92 -6.276,4.918 -9.594,5.357 -2.078,0.44 -8.355,-3.558 -11.673,-3.997 -2.518,-0.44 -5.396,-0.44 -7.515,-0.44 z m -50.769,2.198 c 4.997,0.44 9.994,1.76 15.39,1.32 5.837,0 12.473,-2.239 18.27,-0.44 -5.397,0 -11.194,2.239 -16.19,5.317 -3.319,-2.639 -7.876,-2.639 -10.794,-3.998 z m -54.527,3.079 c 9.994,0 20.827,-1.36 30.381,-2.719 -2.078,0.48 -2.878,2.279 -4.157,3.198 -2.479,1.32 -1.24,0.88 -3.758,1.32 -4.997,0.919 -7.915,0.919 -12.472,4.517 -1.68,-4.517 -7.516,-4.517 -11.273,-4.957 z m -94.183,-1.2 c 12.113,-3.118 20.867,-2.198 33.38,-1.319 11.233,0.88 23.346,3.078 34.579,2.639 -2.079,0 -4.558,0.44 -6.636,1.319 -1.28,0.88 -1.68,2.638 -2.919,2.638 -2.918,0.88 -9.594,-2.638 -12.952,-3.078 -6.236,-0.44 -22.506,-4.837 -27.103,1.32 -3.758,-3.519 -14.991,-4.398 -17.91,-2.2 z M 42.334,42.094 c 4.578,-7.935 19.568,-9.694 27.464,-14.111 9.574,-4.857 17.07,-5.736 27.463,-6.196 -4.157,1.339 -9.154,3.098 -12.053,6.636 -4.157,-4.857 -17.889,1.319 -12.492,7.935 -4.997,-3.958 -11.233,-0.88 -15.81,1.34 -4.158,2.198 -8.735,3.077 -12.893,4.396 z M 19.468,58.565 C 2.838,74.555 2.838,98.5 6.596,120.687 c 1.24,-5.757 -0.42,-12.413 4.557,-16.41 -7.055,-2.219 0,-28.403 2.918,-34.16 0.42,0.88 1.24,0.88 2.08,2.22 0.839,-6.217 3.317,-9.335 7.475,-13.313 -0.82,-0.46 -0.82,0 -1.24,0 z M 31.56,55.047 c -0.419,-3.598 3.319,-6.317 6.617,-6.317 z m 44.914,-17.27 c 3.837,2.639 2.558,7.016 2.558,10.953 z m 43.333,20.308 c -1.679,4.477 0.4,11.193 2.479,14.311 z m 2.479,-28.863 c 2.938,-2.138 7.116,-3.438 11.273,-3.438 z m 89.066,6.157 c 0.44,-3.958 3.398,-5.717 7.196,-6.636 z m 55.486,-4.798 c 2.079,-2.278 5.437,-3.198 8.315,-3.198 z m 33.34,-2.598 c 4.158,-1.879 8.275,-1.4 12.792,0.44 z M 240.214,66.56 c 2.08,-3.078 2.919,-5.717 7.436,-6.157 z m 14.472,27.503 c 1.679,3.558 7.075,6.636 10.793,6.196 z M 193.043,82.55 c 4.157,3.598 11.673,5.357 16.63,3.158 z m 4.637,17.83 c 0.84,-4.838 4.158,-6.157 8.715,-6.637 z m 2.878,-38.298 c 0,-2.638 0,-6.196 2.959,-7.995 z m -39.975,-0.879 c -2.479,3.997 -4.158,12.852 -2.08,15.51 z m 8.315,-19.109 c -2.479,1.78 -2.479,4.458 -2.06,7.116 z m 26.304,-15.51 c 2.918,-2.199 6.636,-2.639 10.313,-0.88 z m -90.745,-2.639 c 2.878,-2.158 6.156,-1.718 9.434,-0.42 z M 81.43,51.929 c 1.26,-4.438 6.277,-7.996 10.874,-7.996 z M 50.65,74.555 c 2.118,-3.118 5.896,-5.357 9.673,-3.118 z M 24.005,69.198 c -0.859,-3.538 2.959,-7.995 6.337,-7.995 z m 7.136,43.174 c 0,-3.158 1.68,-9.035 5.837,-8.575 z m 28.343,15.99 c -0.84,-2.678 0.84,-4.477 3.318,-5.836 z M 83.11,101.179 c 3.358,-3.118 7.555,-4.478 12.152,-4.478 z M 152.288,99.9 c -0.42,3.977 2.898,8.834 6.616,9.274 z M 285.467,73.196 c 4.637,-0.4 7.955,-3.039 10.873,-7.436 z m 37.497,-29.782 c 3.358,2.678 8.355,-0.44 11.673,-2.679 z M 362.14,24.425 c 2.519,2.239 4.158,7.076 2.919,10.154 z m 22.147,6.636 c 2.918,1.68 7.476,1.68 10.794,0.44 z m 0,8.315 c -2.079,2.718 -2.918,7.196 -6.316,7.196 z m -63.322,-16.79 c -2.078,0.92 -2.958,2.239 -2.958,3.998 z M 43.234,153.707 c -0.42,5.277 5.796,3.957 8.695,2.638 z m 16.63,-5.357 c -0.42,5.337 2.478,9.774 6.616,11.993 z m 41.634,-6.316 c -1.199,3.098 0.4,7.076 2.399,9.274 z"
       fill="#ffffff"
       fill-rule="evenodd"
       id="path15149" />
    <path
       d="m 193.483,90.545 c 2.518,8.475 -6.236,12.033 -11.673,15.15 -3.318,2.24 -6.236,4.918 -9.994,6.677 -2.519,0.92 -5.837,0.92 -7.955,2.678 5.436,1.32 15.03,-1.319 21.307,-2.678 3.318,-0.44 7.075,-0.88 9.994,-3.118 -0.84,-3.558 -2.919,-11.993 1.239,-14.671 z"
       fill="#f4d589"
       fill-rule="evenodd"
       id="path15151" />
    <path
       d="m 194.362,94.063 c 0.84,6.236 2.079,8.915 4.997,13.352 -2.079,1.32 -6.676,2.638 -7.515,0 z m 47.451,12.392 c 5.837,0.88 16.23,-6.596 7.516,-10.553 2.918,4.837 -3.758,6.156 -5.397,9.234 z m 42.894,-27.383 c 3.318,0.44 4.997,-1.759 7.916,-2.678 0.8,2.238 -0.84,3.558 -0.44,5.316 0,2.639 1.24,4.398 1.24,6.636 1.238,8.355 -8.276,9.675 -14.112,10.994 3.757,-2.639 9.994,-5.717 9.154,-12.353 0,-2.198 -2.079,-6.156 -4.557,-6.596 z M 324.283,49.73 c 2.479,1.32 4.558,-1.799 7.076,-0.44 1.64,1.32 3.318,5.317 3.718,7.516 0.44,2.638 1.24,7.955 -0.4,10.193 -2.079,3.958 -9.154,3.958 -12.912,5.717 4.997,-2.199 11.233,-7.076 10.833,-13.712 -0.84,-7.515 -7.915,-3.957 -8.754,-9.274 z"
       fill="#f4d589"
       fill-rule="evenodd"
       id="path15153" />
    <path
       d="m 335.117,56.406 c 0.4,3.558 3.718,3.558 4.557,6.236 0.8,3.558 -6.196,4.877 -8.715,5.757 z M 117.249,21.787 c 1.26,1.779 3.358,3.118 5.037,3.997 1.659,-1.319 3.758,-1.759 5.836,-2.218 -2.918,0 -5.836,0.46 -8.774,0 z m 92.424,1.599 c 1.28,1.839 2.119,3.678 3.758,5.037 1.239,-2.719 4.597,-3.198 6.236,-2.719 -2.878,-0.48 -5.797,-1.838 -8.315,-1.838 z"
       fill="#f4d589"
       fill-rule="evenodd"
       id="path15155" />
    <path
       d="m 82.33,142.873 c 0.84,-0.88 3.338,-1.779 3.758,-2.658 0.82,-0.88 1.659,-1.779 2.498,-2.219 1.24,-0.88 2.919,-1.779 4.578,-2.218 2.918,-0.88 5.836,0 8.334,-2.659 2.499,-2.218 4.578,-4.437 7.496,-5.776 3.318,-1.32 6.656,-1.76 9.574,-2.659 2.918,-0.879 5.817,-1.778 8.735,-2.658 2.918,-0.88 4.997,-1.34 7.915,-1.34 2.918,0.46 5.837,1.34 8.755,1.78 1.659,0.44 5.816,0 7.075,1.339 0.82,1.32 0.42,5.317 0,6.656 0,1.779 0,3.538 -0.42,5.317 -0.419,1.779 -1.658,3.118 -2.498,4.437 0,-3.098 0,-6.656 -2.498,-9.314 -2.079,-2.219 -5.837,-3.558 -9.155,-3.558 -5.416,0 -12.492,0.9 -17.909,3.558 -2.498,1.339 -5.417,1.779 -8.335,3.098 -3.738,1.339 -7.915,1.779 -11.233,3.118 -1.679,0.44 -2.099,1.32 -3.338,2.658 -1.26,1.32 -2.079,0.44 -3.338,1.32 -1.659,0.899 -3.738,1.778 -5.417,2.218 -1.239,0 -4.157,-0.44 -4.997,0 z m 71.537,-22.506 c 4.597,1.36 10.473,0 15.03,-0.44 5.038,0 9.635,-0.48 14.632,-0.48 4.997,-0.44 10.034,0 15.03,-0.44 5.837,-0.479 11.274,-2.278 17.51,-3.677 -7.515,3.678 -16.67,1.4 -24.185,0.92 -5.037,-0.44 -9.195,0.48 -13.792,1.399 -3.318,0.88 -7.515,1.799 -10.833,1.359 z M 301.018,89.146 c 6.676,-6.196 14.99,-12.832 23.305,-15.95 -2.078,0 -4.557,1.799 -7.075,2.678 -2.479,0.88 -5.397,1.759 -7.915,2.638 -2.919,1.36 -3.718,3.119 -5.397,5.317 -1.24,0.88 -2.079,2.239 -2.918,3.558 -0.84,1.32 -1.24,3.518 -2.519,3.958 z M 26.984,166.04 c 4.997,1.319 9.154,4.437 14.131,5.756 5.417,1.34 10.394,1.34 16.21,1.779 5.417,0.44 10.814,0.44 16.21,-0.88 2.919,-1.339 5.417,-2.218 8.315,-3.118 2.499,-1.319 5.417,-3.098 7.896,-4.437 -11.633,5.337 -17.87,6.216 -29.083,6.216 -2.918,0.44 -11.233,-0.44 -13.711,-1.32 -3.758,-0.459 -6.237,-0.899 -9.575,-1.778 -3.318,-0.9 -7.475,-1.779 -10.393,-3.118 z"
       fill="#dec26f"
       fill-rule="evenodd"
       id="path15157" />
    <path
       clip-path="url(#a)"
       d="M 21.147,55.007 C 4.917,60.803 2.44,86.107 2,92.344 c -0.84,5.317 -0.4,22.227 0.44,27.543 0.839,5.357 7.075,10.234 7.075,16.47 0.4,7.116 1.24,7.996 3.758,14.232 4.997,14.191 15.79,21.307 29.982,23.985 7.075,1.32 11.233,1.32 18.708,1.76 2.919,0 7.516,-0.44 10.834,-1.32 4.157,-0.88 6.236,-1.759 9.994,-3.118 4.157,-1.32 7.915,-1.76 11.673,-3.558 7.075,-3.998 7.915,-3.118 15.39,-4.437 8.355,-1.32 13.752,-7.116 19.988,-11.114 5.437,-3.118 8.755,-4.877 14.591,-8.434 4.997,-3.119 9.994,-16.47 6.636,-21.787 l 0.84,0.88 c 7.076,0 14.151,-0.44 21.667,-0.88 15.39,-0.44 33.74,-0.88 48.73,-5.317 9.155,-2.678 19.548,-4.917 29.143,-5.357 10.393,-0.44 17.07,-3.118 27.463,-6.196 15.43,-4.477 30.821,-23.146 45.412,-27.583 3.318,-1.32 7.476,-4.438 11.234,-5.757 2.918,-0.92 6.676,-0.92 9.554,-1.799 7.116,-2.198 23.745,-9.314 29.982,-12.432 11.273,-4.877 39.975,-23.546 34.579,-48.45 -1.68,-8.915 -17.47,-4.878 -31.221,0 -9.595,3.557 -22.906,2.198 -33.34,2.198 -8.715,0 -13.312,0.48 -21.627,0.92 -6.236,0 -12.073,1.318 -18.309,1.758 -6.676,0 -9.994,2.239 -16.67,3.118 -7.515,0.88 -17.07,-1.319 -24.985,-2.238 -8.754,-0.88 -21.227,0 -30.421,2.238 -16.63,3.558 -36.218,2.239 -54.527,0.88 -19.149,-0.88 -35.419,-4.438 -54.567,-1.32 -16.23,2.679 -39.536,-0.44 -54.527,8.435 -5.837,3.558 -22.067,7.996 -27.064,12.433 -7.075,6.676 -14.59,10.673 -21.667,16.91"
       fill="none"
       stroke="#333333"
       stroke-width="0.8"
       stroke-linecap="round"
       stroke-linejoin="round"
       id="path15159" />
    <path
       d="m 187.686,82.55 c 7.516,7.076 16.31,10.154 26.704,6.196"
       fill="none"
       stroke="#be8e03"
       stroke-width="0.8"
       stroke-linecap="round"
       stroke-linejoin="round"
       id="path15161" />
    <path
       d="m 199.679,90.545 c -3.238,2.239 -4.477,6.196 -4.038,10.154 m 47.052,-55.966 c 3.678,6.716 0.8,14.75 -4.158,19.668"
       fill="none"
       stroke="#be8e03"
       stroke-width="0.8"
       stroke-linecap="round"
       stroke-linejoin="round"
       id="path15163" />
    <path
       d="m 243.492,55.926 c 3.318,0.44 7.036,1.32 9.515,3.438 m 27.503,17.949 c 7.515,0.44 19.108,-4.477 18.709,-13.951"
       fill="none"
       stroke="#be8e03"
       stroke-width="0.8"
       stroke-linecap="round"
       stroke-linejoin="round"
       id="path15165" />
    <path
       d="m 294.342,74.075 c 1.679,3.158 1.679,6.756 0,10.314 m 2.478,-56.926 c 4.557,-3.997 15.75,-5.356 18.629,1.76"
       fill="none"
       stroke="#be8e03"
       stroke-width="0.8"
       stroke-linecap="round"
       stroke-linejoin="round"
       id="path15167" />
    <path
       d="m 312.97,25.784 c 0.88,-3.158 2.959,-4.557 6.316,-4.557 m 0,24.425 c 6.237,4.438 17.91,-0.44 18.71,-8.914"
       fill="none"
       stroke="#be8e03"
       stroke-width="0.8"
       stroke-linecap="round"
       stroke-linejoin="round"
       id="path15169" />
    <path
       d="m 332.159,46.092 c 3.717,1.799 4.957,5.837 4.157,9.834 m 37.417,-7.596 c 7.596,1.76 13.472,-4.836 14.712,-11.912 M 382.928,33.7 c 5.037,3.038 12.512,1.759 15.83,-2.639 M 362.62,20.747 c 4.118,3.159 6.156,8.515 4.118,13.832"
       fill="none"
       stroke="#be8e03"
       stroke-width="0.8"
       stroke-linecap="round"
       stroke-linejoin="round"
       id="path15171" />
    <path
       d="m 367.577,27.064 c 1.28,-2.639 2.918,-3.998 5.837,-3.518 m -139.916,84.828 c 7.076,5.357 19.988,0.44 22.867,-7.675 m -4.158,-5.357 c 2.958,3.598 6.716,7.196 11.273,6.316 M 191.044,26.624 c 6.676,-5.877 17.51,-5.877 23.346,1.799"
       fill="none"
       stroke="#be8e03"
       stroke-width="0.8"
       stroke-linecap="round"
       stroke-linejoin="round"
       id="path15173" />
    <path
       d="m 222.225,26.584 c -6.636,-1.36 -11.193,2.239 -12.872,9.834 m -82.43,75.474 c 5.417,11.433 19.548,3.078 24.945,-3.518 m -1.599,-5.836 c 1.26,5.337 4.577,11.993 10.793,10.234 m -2.478,-54.207 c -2.938,5.796 -5.037,15.13 -0.84,20.467"
       fill="none"
       stroke="#be8e03"
       stroke-width="0.8"
       stroke-linecap="round"
       stroke-linejoin="round"
       id="path15175" />
    <path
       d="m 155.226,69.758 c -3.758,-4.498 -8.775,-8.555 -14.631,-7.196 M 101.099,24.805 c 6.256,-9.414 15.81,-2.239 22.466,1.779"
       fill="none"
       stroke="#be8e03"
       stroke-width="0.8"
       stroke-linecap="round"
       stroke-linejoin="round"
       id="path15177" />
    <path
       d="m 118.928,29.782 c 4.997,-5.417 12.492,-9.035 18.309,-2.259 m -98.58,18.569 c -7.116,0 -12.153,5.317 -11.314,13.272"
       fill="none"
       stroke="#be8e03"
       stroke-width="0.8"
       stroke-linecap="round"
       stroke-linejoin="round"
       id="path15179" />
    <path
       d="M 33.14,59.504 C 26.064,56.406 19.788,66.58 20.208,73.196 M 55.686,53.208 c 2.479,7.555 -1.259,16.89 -7.915,19.988"
       fill="none"
       stroke="#be8e03"
       stroke-width="0.8"
       stroke-linecap="round"
       stroke-linejoin="round"
       id="path15181" />
    <path
       d="m 54.807,66.1 c 5.896,-0.9 11.353,3.118 11.353,9.814 M 76.953,35.059 c 4.538,3.977 7.836,11.913 2.479,16.31"
       fill="none"
       stroke="#be8e03"
       stroke-width="0.8"
       stroke-linecap="round"
       stroke-linejoin="round"
       id="path15183" />
    <path
       d="m 81.43,45.772 c 3.339,-3.178 7.516,-4.557 11.674,-3.638 m -12.793,85.289 c 6.636,4.457 17.81,-2.239 18.629,-10.734"
       fill="none"
       stroke="#be8e03"
       stroke-width="0.8"
       stroke-linecap="round"
       stroke-linejoin="round"
       id="path15185" />
    <path
       d="m 93.104,112.692 c 2.518,9.034 14.231,4.977 19.668,0.46 M 80.631,102.538 c 1.26,-8.355 12.133,-8.795 17.99,-7.036 m -8.875,-1.759 c 0,-4.057 0.86,-9.034 4.717,-10.394 m 22.846,-23.985 c -2.059,5.357 -0.82,11.593 4.097,14.711"
       fill="none"
       stroke="#be8e03"
       stroke-width="0.8"
       stroke-linecap="round"
       stroke-linejoin="round"
       id="path15187" />
    <path
       d="m 117.249,67.919 c -2.898,0 -6.196,0 -9.115,0.8 m -97.001,51.968 c -4.617,8.015 -3.358,17.81 5.857,20.467"
       fill="none"
       stroke="#be8e03"
       stroke-width="0.8"
       stroke-linecap="round"
       stroke-linejoin="round"
       id="path15189" />
    <path
       d="m 17.81,133.719 c -1.28,4.877 -2.979,13.712 2.538,16.79 M 25.624,98.06 c 5.097,3.598 5.517,10.314 2.559,15.671"
       fill="none"
       stroke="#be8e03"
       stroke-width="0.8"
       stroke-linecap="round"
       stroke-linejoin="round"
       id="path15191" />
    <path
       d="m 29.782,104.377 c 2.538,-2.279 5.916,-3.198 8.875,-2.739 m 0.799,53.348 c 4.577,9.354 14.132,7.136 21.187,2.678"
       fill="none"
       stroke="#be8e03"
       stroke-width="0.8"
       stroke-linecap="round"
       stroke-linejoin="round"
       id="path15193" />
    <path
       d="m 58.165,151.308 c 0,4.478 2.059,8.055 5.756,9.834 M 52.328,115.33 c 3.758,4.018 5.837,9.374 4.178,14.711 m 0.779,-6.156 c 1.26,-2.279 3.338,-3.198 5.837,-3.198 M 192.243,49.77 c 4.598,2.199 6.636,9.234 4.997,13.592"
       fill="none"
       stroke="#be8e03"
       stroke-width="0.8"
       stroke-linecap="round"
       stroke-linejoin="round"
       id="path15195" />
    <path
       d="m 197.2,56.726 c 0.84,-2.199 2.519,-3.518 5.037,-3.518 m 49.091,-31.021 c 4.637,-5.437 15.91,-3.598 17.989,3.597"
       fill="none"
       stroke="#be8e03"
       stroke-width="0.8"
       stroke-linecap="round"
       stroke-linejoin="round"
       id="path15197" />
    <path
       d="m 265.16,28.743 c 2.518,-3.079 6.275,-3.998 9.993,-3.518 m -115.77,7.995 c 4.138,3.997 5.357,9.754 4.538,15.51"
       fill="none"
       stroke="#be8e03"
       stroke-width="0.8"
       stroke-linecap="round"
       stroke-linejoin="round"
       id="path15199" />
    <path
       d="m 163.86,41.215 c 2.1,-1.38 4.618,-1.839 6.717,-1.839 m -44.453,106.715 c 5.356,1.78 13.192,-1.778 13.591,-8.055 m -14.891,0 c 2.1,4.957 0.42,9.894 -4.217,11.673 M 98.94,142.514 c -1.679,4.037 -0.84,8.514 2.479,11.193"
       fill="none"
       stroke="#be8e03"
       stroke-width="0.8"
       stroke-linecap="round"
       stroke-linejoin="round"
       id="path15201" />
    <path
       d="m 98.14,148.35 c -2.458,0.44 -5.356,1.32 -7.835,2.638"
       fill="none"
       stroke="#be8e03"
       stroke-width="0.8"
       stroke-linecap="round"
       stroke-linejoin="round"
       id="path15203" />
    <path
       d="m 80.311,142.554 c 4.997,0.44 5.837,-3.558 9.595,-5.797 3.318,-1.779 6.655,-0.9 9.574,-2.239 3.318,-1.339 4.977,-4.897 8.315,-6.675 2.078,-0.9 5.416,-0.9 7.495,-1.8 6.236,-2.678 13.312,-4.896 19.988,-4.896 5.816,-0.46 11.653,2.678 17.47,1.778"
       fill="none"
       stroke="#333333"
       stroke-width="0.8"
       stroke-linecap="round"
       stroke-linejoin="round"
       id="path15205" />
    <path
       d="m 64.48,75.394 c 0.84,-0.86 4.998,-2.618 4.598,-4.357 -0.84,-3.078 -6.276,0.44 -7.116,1.3 m 55.327,1.778 c 1.26,-0.42 2.099,-0.86 3.358,-2.159 m 22.566,-12.452 c -2.898,7.575 4.937,4.917 4.118,-0.9 m 14.971,-11.193 c 1.259,-0.84 2.498,-1.279 4.157,-1.279 M 162.302,31.98 c -0.8,1.34 -1.6,2.24 -2,3.119 M 136.157,24.445 c 0,2.239 -0.859,4.018 -3.038,4.018 0.44,-1.78 0.44,-3.558 0.88,-5.357 m -15.351,4.317 1.999,2.399 m -19.988,-7.995 c 1.24,0.86 2.459,2.158 3.278,3.438 M 76.194,36.778 c 1.24,-0.44 2.059,-1.32 3.278,-2.639 m 11.673,5.837 c 0.32,0.88 0.32,1.759 0.32,2.638 M 78.992,49.81 c 0.44,0.8 1.3,1.2 2.159,1.599 m -21.667,2.718 c -2.099,0.46 -4.617,0.46 -6.316,1.78 0.86,2.218 3.797,2.218 6.316,1.778 M 48.71,75.954 c -2.498,-3.518 -0.42,-7.515 1.66,-3.518 M 19.508,71.037 c 2.878,3.078 6.156,-1.759 0.42,-3.078 m 10.773,-7.995 c 0.42,-0.42 0.84,-1.28 1.68,-2.159 m 5.036,-13.352 c 0.8,2.598 -0.42,4.317 -2.458,3.038 -0.42,-0.44 0,-0.44 0.4,-1.299 m 15.331,71.017 c 1.279,0 2.558,-0.86 3.837,-2.159 m -26.704,-3.538 c 2.499,3.538 4.557,-0.88 0,-3.098 m 8.715,-5.356 c 0,-1.32 0.44,-2.659 1.28,-3.998 m -12.953,1.679 c 1.26,-0.44 2.498,-1.32 4.157,-2.638 M 9.434,120.727 c 6.237,3.178 -1.239,7.675 -2.078,2.718 m 7.475,10.634 c 1.679,0 3.778,1.339 4.197,3.118 -1.679,0.88 -3.777,0.44 -5.036,-0.44 m 26.384,20.987 c 0.4,-0.48 0.799,-1.439 1.599,-2.398 m 19.987,5.357 c 0.86,0 1.72,-0.84 2.559,-1.68 M 97.78,144.392 c 0.4,0.32 1.2,0.32 2,0 m -7.836,4.798 c 0,0.919 0.8,2.278 1.2,2.718 m 18.308,-36.858 c -1.219,-0.92 -2.458,-2.298 -3.278,-3.677 m -16.23,4.097 c 2.099,-0.86 3.758,-2.618 5.437,-3.058 0.4,2.199 -1.26,3.937 -2.918,5.676 m 2.838,-25.664 c -0.74,1.759 -1.12,3.498 -0.74,4.797 M 91.465,82.11 c 0.42,2.239 2.078,3.598 4.157,4.478 m -41.655,41.334 c 0.84,0.48 2.099,0.48 3.358,0.48 m 5.517,-7.195 c -1.26,-0.88 -1.68,-1.78 -0.84,-3.119 m 18.669,11.673 c 1.72,-1.819 2.559,-3.657 3.838,-5.037 m 42.774,-11.093 c 1.28,-0.9 2.958,-1.799 4.217,-2.258 0.42,2.258 -0.42,4.057 -0.84,5.836 m -7.535,31.181 c -1.199,-0.44 -1.599,-1.32 -1.998,-2.638 m 66.599,-61.403 c 1.24,-0.88 2.079,-2.199 3.318,-3.118 2.039,2.238 0,5.756 -2.079,7.515 m 23.706,3.678 c 0.4,-1.759 0.4,-3.558 0.4,-5.836 -2.479,0.48 -4.158,3.597 -2.479,5.836 m 28.783,-30.222 c 2.478,5.197 5.357,-4.397 1.24,-2.638 m 2.118,-11.594 c 1.24,-1.318 2.478,-2.198 3.678,-3.997 m 5.836,-24.465 c 0.44,9.275 7.436,0.44 3.318,-1.359 m 17.47,5.836 c -0.8,0.92 -1.2,2.24 -0.8,3.119 m 9.954,53.327 c -0.84,-2.238 -0.4,-4.917 0.84,-7.195 1.678,0.92 2.078,3.158 2.478,4.957 m -50.29,31.9 c 0.4,-1.319 0.8,-2.198 2,-3.518 M 154.426,78.612 c 4.518,1.34 5.317,-7.215 -1.639,-3.597 m 3.678,-16.89 c 0.42,1.319 1.24,2.638 2.479,2.638 m -41.655,0.48 c 0,-1.76 -1.68,-2.639 -3.358,-1.76 m -3.598,11.594 c -1.679,-1.799 -0.84,-4.957 0.84,-6.316 2.078,1.359 2.498,4.077 3.318,6.316 m 37.417,32.3 c -0.82,0.52 -2.059,1.04 -2.479,1.04 M 265.52,26.144 c 0,1.32 0.479,2.199 1.358,2.639 m -57.965,5.037 h 2.16 m -18.79,-10.714 c 0,1.32 0,2.199 0.8,3.038 M 320.206,48.37 c 0,-1.758 0,-3.957 1.599,-5.276 1.2,2.638 0,4.837 0,7.036 m 13.672,-12.873 c 0.84,0.92 2.118,1.36 3.358,1.36 m 27.503,-5.837 c 0.84,0.48 2.079,0.48 3.278,0 m 15.83,0.48 c -1.199,1.319 -1.599,2.199 -1.998,3.518 M 298.06,24.785 c -0.4,1.4 0,2.319 0.799,3.198 m 14.631,-0.56 c 0.4,0 1.2,-0.4 1.999,-0.8 m 0.959,-7.195 c -0.4,1.4 0,2.759 0.4,3.678 M 297.66,63.961 c 0.44,1.76 1.239,2.639 2.878,2.639 m 34.619,-12.473 c 1.24,0 2.478,-0.44 3.678,-0.88 m 37.057,-3.437 c -0.44,-0.92 -0.44,-2.279 0.44,-3.678 M 81.15,139.915 c 0.32,1.8 0.32,4.058 0.32,5.837 m -21.107,7.415 c -1.279,-0.46 -2.118,-0.46 -2.558,0.9 M 252.727,97.221 c 0.4,-0.4 0.76,-0.84 1.12,-1.28 m 8.873,6.637 v -1.36"
       fill="none"
       stroke="#fee8b0"
       stroke-width="1.679"
       stroke-miterlimit="8"
       id="path15207" />
  </g>
</svg>
